<svg fill="none" height="24" viewBox="0 0 24 24" width="24" xmlns="http://www.w3.org/2000/svg"><path d="m22.875 11.6251c-.0012-.9622-.2866-1.90255-.8203-2.70312s-1.292-1.42568-2.1797-1.79688v-.375c-.0006-.941-.323-1.8535-.9136-2.58609s-1.4139-1.24123-2.3333-1.44154c-.9195-.2003-1.8798-.08023-2.7216.3403-.8418.42054-1.5145 1.11625-1.9065 1.9717-.392-.85545-1.0647-1.55116-1.9065-1.9717-.84185-.42053-1.80213-.5406-2.72157-.3403-.91943.20031-1.74274.70895-2.33333 1.44154s-.91295 1.64509-.9136 2.58609v.375c-.88841.37017-1.64738.99503-2.18125 1.79583-.53386.80081-.81875 1.74167-.81875 2.70417 0 .9624.28489 1.9034.81875 2.7042.53387.8008 1.29284 1.4256 2.18125 1.7958v.375c.00065.941.32301 1.8535.9136 2.5861s1.4139 1.2412 2.33333 1.4415c.91944.2003 1.87972.0802 2.72157-.3403.8418-.4205 1.5145-1.1162 1.9065-1.9717.392.8555 1.0647 1.5512 1.9065 1.9717s1.8021.5406 2.7216.3403c.9194-.2003 1.7427-.7089 2.3333-1.4415s.913-1.6451.9136-2.5861v-.375c.8879-.3709 1.6464-.9959 2.1801-1.7966.5338-.8006.819-1.7412.8199-2.7034zm-14.625 8.25c-.89511 0-1.75355-.3556-2.38649-.9885-.63293-.633-.98851-1.4914-.98851-2.3865v-.1322c.36861.0875.74614.1319 1.125.1322h.75c.09946 0 .19484-.0395.26517-.1098.07032-.0704.10983-.1657.10983-.2652s-.03951-.1948-.10983-.2652c-.07033-.0703-.16571-.1098-.26517-.1098h-.75c-.97387.0011-1.91672-.3424-2.66166-.9697s-1.24392-1.4979-1.40861-2.4577c-.16469-.9599.01554-1.947.50876-2.78676.49323-.83973 1.26766-1.47788 2.1862-1.80147.07315-.02579.13651-.07363.18134-.13693.04482-.0633.06892-.13894.06897-.21651v-.63093c0-.89511.35558-1.75355.98851-2.38649.63294-.63293 1.49138-.98851 2.38649-.98851s1.7535.35558 2.3865.98851c.6329.63294.9885 1.49138.9885 2.38649v7.3828c-.3801-.5424-.8852-.9854-1.4727-1.2913-.58745-.306-1.23994-.466-1.9023-.4665-.09946 0-.19484.0395-.26517.1098-.07032.0704-.10983.1657-.10983.2652s.03951.1948.10983.2652c.07033.0703.16571.1098.26517.1098.89511 0 1.7535.3556 2.3865.9885.6329.6329.9885 1.4914.9885 2.3865s-.3556 1.7535-.9885 2.3865c-.633.6329-1.49139.9885-2.3865.9885zm9.75-4.125h-.75c-.0995 0-.1948.0395-.2652.1098-.0703.0704-.1098.1657-.1098.2652s.0395.1948.1098.2652c.0704.0703.1657.1098.2652.1098h.75c.3789-.0003.7564-.0447 1.125-.1322v.1322c0 .6675-.1979 1.32-.5688 1.875-.3708.5551-.8979.9876-1.5146 1.2431-.6167.2554-1.2953.3223-1.95.192-.6547-.1302-1.2561-.4516-1.7281-.9236s-.7934-1.0734-.9237-1.7281c-.1302-.6547-.0633-1.3333.1921-1.95.2555-.6167.688-1.1438 1.243-1.5146.5551-.3709 1.2076-.5688 1.8751-.5688.0995 0 .1948-.0395.2652-.1098.0703-.0704.1098-.1657.1098-.2652s-.0395-.1948-.1098-.2652c-.0704-.0703-.1657-.1098-.2652-.1098-.6624.0005-1.3149.1605-1.9023.4665-.5875.3059-1.0926.7489-1.4727 1.2913v-7.3828c0-.89511.3556-1.75355.9885-2.38649.633-.63293 1.4914-.98851 2.3865-.98851s1.7535.35558 2.3865.98851c.6329.63294.9885 1.49138.9885 2.38649v.63093c0 .07757.0241.15321.069.21651.0448.0633.1082.11114.1813.13693.9185.32359 1.693.96174 2.1862 1.80147.4932.83976.6735 1.82686.5088 2.78676-.1647.9598-.6637 1.8304-1.4086 2.4577-.745.6273-1.6878.9708-2.6617.9697zm1.125-5.25c0 .0995-.0395.1948-.1098.2652-.0704.0703-.1657.1098-.2652.1098h-.375c-.7956 0-1.5587-.3161-2.1213-.87868-.5626-.56261-.8787-1.32568-.8787-2.12132v-.375c0-.09946.0395-.19484.1098-.26517.0704-.07033.1657-.10983.2652-.10983s.1948.0395.2652.10983c.0703.07033.1098.16571.1098.26517v.375c0 .59673.2371 1.16903.659 1.59099.422.42195.9943.65901 1.591.65901h.375c.0995 0 .1948.0395.2652.1098.0703.0704.1098.1657.1098.2652zm-10.5-2.625c0 .79564-.31607 1.55871-.87868 2.12132-.56261.56258-1.32567.87868-2.12132.87868h-.375c-.09946 0-.19484-.0395-.26516-.1098-.07033-.0704-.10984-.1657-.10984-.2652s.03951-.1948.10984-.2652c.07032-.0703.1657-.1098.26516-.1098h.375c.59674 0 1.16903-.23706 1.59099-.65901.42196-.42196.65901-.99426.65901-1.59099v-.375c0-.09946.03951-.19484.10983-.26517.07033-.07033.16571-.10983.26517-.10983s.19484.0395.26517.10983c.07032.07033.10983.16571.10983.26517z" fill="#d7d1c1"/></svg>